<?xml version="1.0" encoding="UTF-8"?>
<svg xmlns="http://www.w3.org/2000/svg" viewBox="0 0 1200 800">
  <defs>
    <style>
      .title { font-family: Arial, sans-serif; font-size: 18px; font-weight: bold; text-anchor: middle; }
      .subtitle { font-family: Arial, sans-serif; font-size: 14px; font-weight: bold; text-anchor: middle; }
      .label { font-family: Arial, sans-serif; font-size: 12px; text-anchor: middle; }
      .small-label { font-family: Arial, sans-serif; font-size: 10px; text-anchor: middle; }
      .flow-box { fill: #f0f8ff; stroke: #4682b4; stroke-width: 2; rx: 10; }
      .decision-box { fill: #fffacd; stroke: #daa520; stroke-width: 2; }
      .process-box { fill: #e6ffe6; stroke: #32cd32; stroke-width: 2; rx: 5; }
      .conflict-box { fill: #ffe6e6; stroke: #ff6b6b; stroke-width: 2; rx: 5; }
      .resolution-box { fill: #e6f3ff; stroke: #4169e1; stroke-width: 2; rx: 5; }
      .flow-arrow { stroke: #333; stroke-width: 2; fill: none; marker-end: url(#arrowhead); }
      .conflict-arrow { stroke: #ff6b6b; stroke-width: 2; fill: none; marker-end: url(#arrowhead); }
      .resolution-arrow { stroke: #4169e1; stroke-width: 2; fill: none; marker-end: url(#arrowhead); }
    </style>
    <marker id="arrowhead" markerWidth="10" markerHeight="7" refX="9" refY="3.5" orient="auto">
      <polygon points="0 0, 10 3.5, 0 7" fill="#333" />
    </marker>
  </defs>
  
  <!-- Title -->
  <text x="600" y="30" class="title">BPMN Collaborative Editing - Conflict Resolution Flow</text>
  
  <!-- Concurrent Changes Section -->
  <rect x="50" y="60" width="1100" height="120" class="flow-box"/>
  <text x="600" y="80" class="subtitle">1. Concurrent Changes Detection</text>
  
  <!-- User A Change -->
  <rect x="80" y="100" width="200" height="60" class="process-box"/>
  <text x="180" y="125" class="label">User A: Move Element</text>
  <text x="180" y="140" class="small-label">position: {x: 100, y: 50}</text>
  
  <!-- User B Change -->
  <rect x="320" y="100" width="200" height="60" class="process-box"/>
  <text x="420" y="125" class="label">User B: Move Same Element</text>
  <text x="420" y="140" class="small-label">position: {x: 150, y: 80}</text>
  
  <!-- Y.js State Vector -->
  <rect x="560" y="100" width="200" height="60" class="decision-box"/>
  <text x="660" y="125" class="label">Y.js State Vector</text>
  <text x="660" y="140" class="small-label">Detects concurrent ops</text>
  
  <!-- CRDT Merge -->
  <rect x="800" y="100" width="200" height="60" class="resolution-box"/>
  <text x="900" y="125" class="label">CRDT Automatic Merge</text>
  <text x="900" y="140" class="small-label">Conflict-free resolution</text>
  
  <!-- Conflict Types Section -->
  <rect x="50" y="200" width="1100" height="180" class="flow-box"/>
  <text x="600" y="220" class="subtitle">2. Conflict Types &amp; Resolution Strategies</text>
  
  <!-- Position Conflicts -->
  <rect x="80" y="240" width="250" height="80" class="conflict-box"/>
  <text x="205" y="260" class="label">Position Conflicts</text>
  <text x="205" y="275" class="small-label">• Coordinate changes</text>
  <text x="205" y="290" class="small-label">• Size modifications</text>
  <text x="205" y="305" class="small-label">Resolution: Y.js CRDT merge</text>
  
  <!-- Property Conflicts -->
  <rect x="350" y="240" width="250" height="80" class="conflict-box"/>
  <text x="475" y="260" class="label">Property Conflicts</text>
  <text x="475" y="275" class="small-label">• Text content changes</text>
  <text x="475" y="290" class="small-label">• Color modifications</text>
  <text x="475" y="305" class="small-label">Resolution: Last-writer-wins</text>
  
  <!-- Structural Conflicts -->
  <rect x="620" y="240" width="250" height="80" class="conflict-box"/>
  <text x="745" y="260" class="label">Structural Conflicts</text>
  <text x="745" y="275" class="small-label">• Element creation/deletion</text>
  <text x="745" y="290" class="small-label">• Connection changes</text>
  <text x="745" y="305" class="small-label">Resolution: Validation + merge</text>
  
  <!-- BPMN-Specific Conflicts -->
  <rect x="890" y="240" width="250" height="80" class="conflict-box"/>
  <text x="1015" y="260" class="label">BPMN-Specific Conflicts</text>
  <text x="1015" y="275" class="small-label">• Business object changes</text>
  <text x="1015" y="290" class="small-label">• Process validity</text>
  <text x="1015" y="305" class="small-label">Resolution: Semantic validation</text>
  
  <!-- Resolution Process Section -->
  <rect x="50" y="400" width="1100" height="200" class="flow-box"/>
  <text x="600" y="420" class="subtitle">3. Resolution Process Flow</text>
  
  <!-- Step 1: Detect -->
  <rect x="80" y="440" width="150" height="60" class="process-box"/>
  <text x="155" y="465" class="label">1. Detect Conflict</text>
  <text x="155" y="480" class="small-label">Version vector check</text>
  
  <!-- Step 2: Categorize -->
  <rect x="260" y="440" width="150" height="60" class="decision-box"/>
  <text x="335" y="465" class="label">2. Categorize Type</text>
  <text x="335" y="480" class="small-label">Position/Property/Structural</text>
  
  <!-- Step 3: Apply Strategy -->
  <rect x="440" y="440" width="150" height="60" class="resolution-box"/>
  <text x="515" y="465" class="label">3. Apply Strategy</text>
  <text x="515" y="480" class="small-label">CRDT/LWW/Validation</text>
  
  <!-- Step 4: Validate -->
  <rect x="620" y="440" width="150" height="60" class="process-box"/>
  <text x="695" y="465" class="label">4. Validate Result</text>
  <text x="695" y="480" class="small-label">BPMN semantics</text>
  
  <!-- Step 5: Notify -->
  <rect x="800" y="440" width="150" height="60" class="resolution-box"/>
  <text x="875" y="465" class="label">5. Notify Users</text>
  <text x="875" y="480" class="small-label">Awareness updates</text>
  
  <!-- Fallback Process -->
  <rect x="80" y="520" width="870" height="60" class="conflict-box"/>
  <text x="515" y="545" class="label">Fallback: Manual Resolution UI</text>
  <text x="515" y="560" class="small-label">For complex conflicts that cannot be automatically resolved</text>
  
  <!-- Example Scenario Section -->
  <rect x="50" y="620" width="1100" height="140" class="flow-box"/>
  <text x="600" y="640" class="subtitle">4. Example: Concurrent Element Movement</text>
  
  <!-- Timeline -->
  <line x1="100" y1="680" x2="1100" y2="680" stroke="#333" stroke-width="2"/>
  
  <!-- Time markers -->
  <circle cx="200" cy="680" r="5" fill="#ff6b35"/>
  <text x="200" y="700" class="small-label">t1: User A</text>
  <text x="200" y="715" class="small-label">moves to (100,50)</text>
  
  <circle cx="400" cy="680" r="5" fill="#4169e1"/>
  <text x="400" y="700" class="small-label">t1: User B</text>
  <text x="400" y="715" class="small-label">moves to (150,80)</text>
  
  <circle cx="600" cy="680" r="5" fill="#32cd32"/>
  <text x="600" y="700" class="small-label">t2: Y.js merge</text>
  <text x="600" y="715" class="small-label">CRDT resolution</text>
  
  <circle cx="800" cy="680" r="5" fill="#9932cc"/>
  <text x="800" y="700" class="small-label">t3: Result</text>
  <text x="800" y="715" class="small-label">Deterministic outcome</text>
  
  <circle cx="1000" cy="680" r="5" fill="#ff1493"/>
  <text x="1000" y="700" class="small-label">t4: Sync</text>
  <text x="1000" y="715" class="small-label">All clients updated</text>
  
  <!-- Flow arrows -->
  <path d="M 230 470 L 260 470" class="flow-arrow"/>
  <path d="M 410 470 L 440 470" class="flow-arrow"/>
  <path d="M 590 470 L 620 470" class="flow-arrow"/>
  <path d="M 770 470 L 800 470" class="flow-arrow"/>
  
  <!-- Conflict arrows -->
  <path d="M 180 160 L 660 240" class="conflict-arrow"/>
  <path d="M 420 160 L 660 240" class="conflict-arrow"/>
  
  <!-- Resolution arrows -->
  <path d="M 900 160 L 515 440" class="resolution-arrow"/>
  
</svg>